<svg width="292" height="291" viewBox="0 0 292 291" fill="none" xmlns="http://www.w3.org/2000/svg">
<path d="M258.766 53.4538L234.985 72.6303C251.862 93.3409 261.067 119.421 261.067 145.501C261.067 209.167 209.671 260.56 146 260.56C139.096 260.56 131.425 259.793 124.521 258.259L119.151 288.174C128.357 289.708 137.562 290.475 146 290.475C226.547 290.475 291.752 225.275 291.752 144.734C291.752 112.517 280.245 79.5338 258.766 53.4538Z" fill="white"/>
<path d="M199.697 23.5365L290.984 35.8094L215.807 110.981L199.697 23.5365ZM145.999 0.524658C65.4526 0.524658 0.248047 65.7247 0.248047 146.266C0.248047 181.551 12.5219 215.301 35.5352 241.381L58.5486 221.438C40.905 200.727 30.9326 173.88 30.9326 146.266C30.9326 82.6001 82.3291 31.2071 145.999 31.2071C152.904 31.2071 160.575 31.9741 167.479 33.5082L172.848 3.5929C164.41 1.29172 155.205 0.524658 145.999 0.524658Z" fill="white"/>
<path d="M92.306 268.996L1.01953 256.723L76.1966 181.551L92.306 268.996Z" fill="white"/>
<path d="M208.243 106.76C208.214 106.76 208.214 106.76 208.243 106.76H199.694V103.853C199.751 102.702 199.003 101.666 197.88 101.349C191.98 99.7951 185.878 99.018 179.775 99.0468C169.73 99.0468 156.058 101.321 145.926 111.596C135.88 101.205 122.093 99.0468 112.076 99.0468C105.974 99.018 99.8716 99.7951 93.9709 101.349C92.8772 101.666 92.1288 102.702 92.1576 103.853V106.732H83.7239C82.3423 106.732 81.2197 107.854 81.2197 109.236V189.423C81.2197 190.804 82.3423 191.927 83.7239 191.927C84.1557 191.927 84.5874 191.812 84.9616 191.61C85.2207 191.495 110.32 177.766 145.379 186.602H145.753H145.983C146.185 186.631 146.386 186.631 146.588 186.602C181.733 177.68 206.832 191.409 207.005 191.61C207.782 192.071 208.732 192.071 209.509 191.61C210.286 191.179 210.747 190.344 210.776 189.452V109.293C210.747 107.883 209.624 106.76 208.243 106.76ZM86.2281 185.451V111.797H92.2151V174.773C92.1863 176.154 93.3089 177.306 94.6905 177.306C94.8345 177.306 94.9496 177.306 95.0935 177.277C100.275 176.471 105.542 176.068 110.781 176.01C118.063 175.895 125.316 176.989 132.225 179.263C116.653 177.363 100.793 179.493 86.2281 185.451ZM110.809 171.002C106.233 171.002 101.685 171.319 97.1372 171.894V105.839C102.03 104.746 107.01 104.199 112.018 104.17C121.402 104.17 134.355 106.329 143.364 116.46L143.45 179.004C138.24 175.607 128.051 171.002 110.809 171.002ZM148.487 116.489C157.468 106.444 170.421 104.199 179.833 104.199C184.841 104.228 189.821 104.774 194.714 105.868V171.923C190.195 171.348 185.676 171.031 181.128 171.031C164.002 171.031 153.784 175.636 148.487 179.032V116.489ZM205.71 185.451C191.116 179.493 175.228 177.334 159.598 179.263C166.535 176.989 173.817 175.895 181.128 176.01C186.424 176.039 191.692 176.442 196.931 177.248C198.312 177.449 199.579 176.5 199.78 175.147C199.809 175.003 199.809 174.888 199.809 174.744V111.797H205.796L205.71 185.451Z" fill="black"/>
</svg>
