<svg width="26" height="21" viewBox="0 0 26 21" fill="none" xmlns="http://www.w3.org/2000/svg">
<path d="M4.44531 0.628906H21.3203C23.4866 0.628906 25.2568 2.32447 25.3764 4.46088L25.3828 4.69141V16.5664C25.3828 18.7327 23.6872 20.5029 21.5508 20.6225L21.3203 20.6289H4.44531C2.27903 20.6289 0.50875 18.9333 0.389238 16.7969L0.382812 16.5664V4.69141C0.382812 2.52512 2.07837 0.754844 4.21479 0.635331L4.44531 0.628906ZM23.5078 7.34516L13.3194 12.7085C13.0852 12.8318 12.8117 12.8494 12.5663 12.7614L12.4462 12.7085L2.25781 7.34641V16.5664C2.25781 17.7142 3.1417 18.6554 4.2659 18.7467L4.44531 18.7539H21.3203C22.4681 18.7539 23.4093 17.87 23.5006 16.7458L23.5078 16.5664V7.34516ZM21.3203 2.50391H4.44531C3.2976 2.50391 2.35633 3.38779 2.26506 4.51199L2.25781 4.69141V5.22766L12.8828 10.8195L23.5078 5.22641V4.69141C23.5078 3.54369 22.6239 2.60242 21.4997 2.51116L21.3203 2.50391Z" fill="#212121"/>
</svg>
